<?xml version="1.0" encoding="utf-8"?>
<svg version="1.1" xmlns:cc="http://creativecommons.org/ns#" xmlns:dc="http://purl.org/dc/elements/1.1/" xmlns:rdf="http://www.w3.org/1999/02/22-rdf-syntax-ns#" xmlns="http://www.w3.org/2000/svg" xmlns:xlink="http://www.w3.org/1999/xlink" x="0px" y="0px" viewBox="0 0 1024 768" xml:space="preserve">
<path fill="#ffffff" d="m416.21094 275.36133c-1.56376-0.009-3.21397 0.00304-3.66797 0.02344-0.45399 0.0211-1.18534 0.06234-1.62695 0.08984-0.44116 0.028-1.28792 0.0902-1.88086 0.14062-0.59248 0.05-1.54165 0.14376-2.10938 0.20704-0.56726 0.0637-1.47509 0.17674-2.01758 0.25195-0.54205 0.0752-1.48061 0.21885-2.08593 0.31836-0.60533 0.099-1.58675 0.2746-2.17969 0.39062-0.59249 0.11647-1.49178 0.30218-1.99805 0.41407-0.50628 0.11144-1.41685 0.32764-2.02539 0.47851-0.60807 0.15088-1.48503 0.37941-1.94726 0.50781-0.4618 0.1284-1.22067 0.34738-1.6875 0.48633-0.46639 0.13895-1.35301 0.41841-1.97071 0.6211-0.61771 0.20269-1.60823 0.54411-2.20117 0.75781-0.59249 0.2137-1.66571 0.62204-2.38477 0.9082-0.71859 0.28615-1.74183 0.70833-2.27148 0.93945-0.52966 0.23159-1.5499 0.69718-2.26758 1.03516-0.71814 0.33751-1.88271 0.91646-2.58984 1.28516-0.70759 0.36915-1.70928 0.90848-2.22656 1.19922-0.51682 0.29028-1.40494 0.80724-1.97266 1.14843-0.56726 0.34072-1.46448 0.89848-1.99414 1.23828-0.52966 0.33981-1.38507 0.90724-1.90235 1.26172-0.51681 0.35403-1.23952 0.85891-1.60546 1.12305-0.36549 0.2646-1.00549 0.73964-1.42188 1.05469-0.41593 0.3155-1.05593 0.81082-1.42187 1.10156-0.36549 0.29074-0.9752 0.78652-1.35352 1.10156-0.37833 0.31504-1.0848 0.9237-1.57227 1.35157-0.48745 0.42784-1.22076 1.08606-1.6289 1.46484-0.40813 0.37879-1.33081 1.27865-2.05078 2-0.71997 0.72134-1.59865 1.62801-1.95313 2.01367l-0.64453 0.70117-0.0293 0.65235c-0.0165 0.35861-0.05363 1.31204-0.08203 2.11914-0.0316 0.90157-0.04139 2.54537-0.02539 4.26367 0.0142 1.53853 0.05826 3.40612 0.09766 4.15039 0.0394 0.74382 0.0915 1.6627 0.11719 2.04101 0.0257 0.37834 0.06699 0.95533 0.09179 1.28321 0.0248 0.32789 0.0767 0.94818 0.11524 1.37695 0.0385 0.42877 0.11167 1.17117 0.16211 1.65039 0.0509 0.47921 0.15435 1.37597 0.23047 1.99414 0.0761 0.6177 0.21077 1.61928 0.29882 2.22461 0.0876 0.60532 0.25346 1.6569 0.36719 2.33789s0.30944 1.78693 0.43555 2.45508c0.12565 0.66815 0.35154 1.78551 0.50195 2.48438 0.15087 0.69842 0.3975 1.7933 0.54883 2.43164 0.15087 0.63789 0.41062 1.67609 0.57617 2.30664 0.16554 0.63055 0.4147 1.547 0.55274 2.03906 0.13803 0.49159 0.41691 1.44122 0.61914 2.10937 0.20177 0.66815 0.61162 1.94814 0.91015 2.84375 0.29854 0.89514 0.70644 2.08184 0.90821 2.63672 0.20132 0.55488 0.50506 1.37088 0.67382 1.8125 0.16875 0.44115 0.4928 1.26627 0.72071 1.83399 0.22792 0.56727 0.62658 1.52748 0.88476 2.13281 0.25818 0.60532 0.67379 1.55034 0.92188 2.10156 0.3366 0.74702 0.45869 0.98126 0.48437 0.91797 0.0192-0.0468 0.11994-0.53887 0.22266-1.09375 0.10318-0.55488 0.2808-1.45405 0.39453-1.99609 0.11373-0.5425 0.32003-1.48062 0.45898-2.08594 0.13895-0.60533 0.37602-1.59584 0.52735-2.20117 0.15133-0.60532 0.42768-1.66 0.61523-2.34375 0.1871-0.68374 0.50733-1.79833 0.71094-2.47656 0.20361-0.67824 0.64582-2.05754 0.98242-3.06641 0.33614-1.00888 0.80117-2.34992 1.0332-2.98047 0.23251-0.63055 0.67484-1.78649 0.98438-2.56836 0.30954-0.78188 0.81016-2.00082 1.11328-2.70703 0.30266-0.70621 0.80628-1.84049 1.11719-2.52148 0.31092-0.68099 1.00195-2.1158 1.53711-3.1875 0.53516-1.07216 1.22446-2.41321 1.53125-2.98047 0.30679-0.56772 0.79623-1.45585 1.08789-1.97266 0.29119-0.51728 0.86485-1.49674 1.27344-2.17773 0.40906-0.68099 1.01783-1.67152 1.35351-2.20118s1.01611-1.57259 1.51367-2.3164c0.49802-0.74428 1.21865-1.79378 1.60157-2.33399 0.38291-0.54021 0.95725-1.33502 1.27734-1.76562 0.31963-0.43061 0.81852-1.09238 1.10742-1.4707 0.28891-0.37833 0.84413-1.09045 1.23438-1.58204 0.39025-0.49206 1.10604-1.3691 1.58984-1.94921 0.48381-0.5801 1.25696-1.48677 1.71875-2.01368 0.46225-0.52691 1.19244-1.34141 1.62305-1.81054 0.43061-0.46959 1.17772-1.26705 1.66015-1.77149 0.48197-0.50443 1.47203-1.50405 2.20118-2.22265 0.72914-0.71905 1.74016-1.68987 2.24414-2.15625 0.50444-0.46683 1.3497-1.23263 1.8789-1.70313s1.40523-1.23191 1.94727-1.69141c0.5425-0.45949 1.59602-1.3233 2.33984-1.91992 0.74427-0.59661 1.96126-1.54093 2.70508-2.09765 0.74427-0.55671 1.71315-1.2694 2.1543-1.58399 0.44161-0.31504 1.25762-0.88396 1.8125-1.26367 0.55488-0.38016 1.48239-0.9985 2.0625-1.375 0.5801-0.37649 1.36581-0.87711 1.74414-1.11328 0.37832-0.23571 1.13179-0.69693 1.67383-1.02344 0.5425-0.32651 1.40897-0.83462 1.92578-1.13086 0.51728-0.29625 1.37268-0.77612 1.90234-1.0664 0.52966-0.29074 1.32182-0.71591 1.75977-0.94336 0.56267-0.29166 0.77147-0.42112 0.71093-0.43946-0.0473-0.0142-0.61247-0.0769-1.25586-0.14062-0.64292-0.0633-1.59209-0.14703-2.10937-0.18555-0.51682-0.039-1.30058-0.0921-1.74219-0.11914-0.44115-0.0266-2.08272-0.05575-3.64648-0.06445zm260.86914 1.30664l-56.08594 154.17969h7.03906l49.04688-134.82618 46.6289 128.22657h-80.93945v6.59961h90.39649l-56.08594-154.17969zm-386.2461 0.21875v153.96094h6.59961v-153.96094h-6.59961zm233.0625 0v6.59961h72.58204l-78.29883 147.36133h89.73633v-6.59961h-78.74024l78.29883-147.36133h-83.57813zm-91.69726 0.33203c-0.0412 0.00046-0.58427 0.2677-1.20703 0.59375-0.6232 0.32605-1.48058 0.78208-1.9043 1.01367-0.42372 0.23204-1.0787 0.5964-1.45703 0.81055-0.37833 0.21462-1.11163 0.63933-1.62891 0.94336-0.51682 0.3045-1.53809 0.92445-2.26953 1.3789-0.73143 0.45491-2.04172 1.30478-2.91211 1.88672-0.86992 0.58194-2.09796 1.42618-2.72851 1.87696-0.63054 0.45079-1.67774 1.21911-2.32618 1.70703-0.64841 0.48839-1.6894 1.29644-2.31445 1.79492-0.62504 0.49847-1.56995 1.26841-2.09961 1.71094-0.52966 0.44299-1.31536 1.11213-1.74414 1.48633-0.42877 0.37418-1.09906 0.97018-1.49023 1.32421-0.39071 0.35402-1.21582 1.12131-1.83399 1.70508-0.6177 0.58378-1.82409 1.77196-2.68164 2.63867-0.858 0.86672-1.92121 1.96806-2.36328 2.44727-0.44208 0.47922-1.0725 1.17117-1.40039 1.53711-0.32742 0.36549-0.86456 0.97323-1.19336 1.35156-0.32835 0.37833-0.92388 1.08134-1.32422 1.56055-0.40034 0.47922-1.08272 1.31297-1.51562 1.85547-0.43335 0.54204-1.1101 1.41046-1.50586 1.92773-0.39529 0.51682-1.09138 1.44906-1.54492 2.07227-0.45353 0.62275-0.82422 1.14236-0.82422 1.15429 0 0.0119 0.49094-0.14335 1.08984-0.34375 0.59891-0.20086 1.57354-0.51694 2.16602-0.70312 0.59294-0.18573 1.28489-0.39997 1.53711-0.47656 0.25222-0.0766 0.89751-0.26435 1.43359-0.41797 0.53608-0.15363 1.59825-0.44115 2.36133-0.64063 0.76261-0.19949 1.95507-0.49748 2.64844-0.66211 0.69383-0.16418 1.7454-0.40318 2.33789-0.52929 0.59294-0.12657 1.66617-0.34198 2.38476-0.48047 0.71905-0.1385 1.92695-0.35481 2.6836-0.48047 0.75666-0.12611 1.89093-0.3027 2.52148-0.39258 0.63055-0.0894 1.65182-0.22409 2.26953-0.29883 0.61816-0.0747 1.52598-0.17806 2.01758-0.22851 0.49205-0.0509 1.23446-0.1245 1.65039-0.16211 0.41639-0.0381 1.20211-0.10015 1.74414-0.13867 0.54251-0.0381 1.58348-0.10061 2.31445-0.13868 0.73143-0.0381 2.28513-0.0896 3.45313-0.11523 1.42848-0.0307 2.78611-0.0312 4.15039 0 1.11527 0.0257 2.44998 0.06815 2.9668 0.09375 0.51728 0.0257 1.28133 0.0661 1.69726 0.0918s1.15879 0.0776 1.65039 0.11523c0.49205 0.0381 1.43212 0.12076 2.08789 0.18359 0.65577 0.0624 1.6357 0.16627 2.17774 0.23047 0.54203 0.0642 1.36715 0.16811 1.83398 0.23047 0.46684 0.0624 1.45516 0.20612 2.19531 0.32031 0.74014 0.11373 1.95714 0.31842 2.70508 0.45508 0.74795 0.13666 1.77291 0.33237 2.27735 0.43555s1.33865 0.28034 1.85546 0.39453c0.5173 0.11372 1.48546 0.33961 2.1504 0.50195s1.6035 0.3994 2.08593 0.52735c0.48242 0.12748 1.31019 0.35602 1.83985 0.50781 0.52966 0.15133 1.37642 0.40048 1.88086 0.55273 0.50444 0.15179 1.57766 0.49276 2.38476 0.75782 0.80709 0.26551 2.0568 0.69403 2.77539 0.95312 0.71905 0.2591 1.71822 0.62978 2.22266 0.82422s1.3406 0.5263 1.85742 0.73633c0.51728 0.20957 1.47589 0.61147 2.12891 0.89258 0.65347 0.28156 1.70505 0.74878 2.33789 1.03906 0.6333 0.28982 1.99716 0.94687 3.03125 1.46094 1.0341 0.51453 2.36455 1.19793 2.95703 1.51758 0.59294 0.31963 1.67239 0.91885 2.39648 1.33203 0.72456 0.41318 1.76508 1.02242 2.31446 1.35351 0.54938 0.3311 1.46618 0.89749 2.03711 1.25977 0.5714 0.36273 1.04921 0.66015 1.0625 0.66015 0.0133 0-0.093-0.27507-0.23829-0.60937-0.14536-0.33431-0.43898-0.98825-0.65039-1.45508-0.2114-0.46684-0.66433-1.41599-1.00781-2.10937-0.34347-0.69383-0.80735-1.60164-1.0293-2.01758-0.22195-0.41593-0.55671-1.0367-0.74609-1.37696-0.1894-0.34073-0.56111-0.98937-0.82617-1.44336-0.2646-0.45398-0.74495-1.2488-1.06641-1.76562-0.32193-0.51728-0.87184-1.37268-1.22265-1.90234-0.35082-0.52965-0.91386-1.35673-1.25-1.83594-0.33661-0.47922-0.94377-1.31389-1.34961-1.85547-0.40631-0.54159-1.02568-1.34699-1.37696-1.78906-0.35127-0.44207-0.89797-1.11192-1.21484-1.49024-0.31642-0.37833-0.79296-0.93562-1.05664-1.23828-0.26415-0.30266-0.75843-0.85938-1.09961-1.23633-0.34165-0.37695-1.06803-1.15114-1.61328-1.7207-0.54525-0.57001-1.44984-1.4761-2.00977-2.01172-0.55992-0.53608-1.44008-1.35232-1.95508-1.8164-0.51544-0.46408-1.26061-1.12056-1.6582-1.45899s-1.19724-0.99549-1.77734-1.46094c-0.58011-0.46546-1.42687-1.12561-1.88086-1.46679s-1.18729-0.87786-1.62891-1.19336c-0.44115-0.31505-1.18356-0.83202-1.65039-1.14844-0.46638-0.31642-1.30254-0.86461-1.85742-1.2168s-1.44104-0.89785-1.9707-1.21289-1.33508-0.78006-1.78907-1.0332-1.18095-0.6487-1.61523-0.87891c-0.43473-0.23066-1.25984-0.65227-1.83398-0.9375-0.5746-0.28524-1.52009-0.73805-2.10157-1.00586-0.58193-0.26781-1.5311-0.68722-2.10937-0.93164-0.57873-0.24397-1.39267-0.57697-1.8086-0.74023-0.41593-0.16325-1.10834-0.4283-1.5371-0.58789-0.42877-0.15959-1.11013-0.40356-1.51368-0.54297s-1.0849-0.36645-1.51367-0.50586c-0.42877-0.13986-1.22358-0.38649-1.76562-0.54883-0.54204-0.16279-1.49121-0.43107-2.10938-0.5957-0.6177-0.16463-1.39087-0.36494-1.71875-0.44336-0.32788-0.0784-0.86133-0.20305-1.18555-0.27734-0.32421-0.0743-0.62428-0.13477-0.66601-0.13477zm-79.2793 29.39453c-0.005 0-0.29521 0.38658-0.64648 0.85938-0.35081 0.47279-0.87426 1.20079-1.16406 1.61718-0.29028 0.41593-0.73411 1.067-0.98633 1.44532-0.25221 0.37833-0.6547 0.99667-0.89453 1.375-0.23984 0.37833-0.64278 1.02892-0.89454 1.44531-0.25176 0.41593-0.62348 1.04533-0.82617 1.39844-0.20269 0.3531-0.53456 0.94069-0.73633 1.30664-0.20178 0.36548-0.60747 1.12586-0.90234 1.68945-0.29486 0.56405-0.7016 1.36946-0.9043 1.78906-0.20269 0.42006-0.58489 1.23308-0.84765 1.8086-0.26277 0.57551-0.62239 1.39152-0.80078 1.8125-0.17884 0.42097-0.45024 1.0748-0.60157 1.45312-0.15179 0.37833-0.44714 1.14043-0.65625 1.69531s-0.5237 1.43194-0.70117 1.94922c-0.17793 0.51682-0.43076 1.27028-0.56054 1.67383-0.12978 0.40354-0.36535 1.17866-0.5254 1.7207-0.15958 0.54204-0.3637 1.25414-0.45312 1.58204-0.0894 0.32787-0.27557 1.05057-0.41406 1.60546-0.13849 0.55488-0.34618 1.42136-0.45899 1.92578-0.11327 0.50444-0.29838 1.39061-0.41211 1.97071-0.11418 0.5801-0.26912 1.41581-0.3457 1.85742-0.0761 0.44115-0.20064 1.21626-0.27539 1.7207-0.0747 0.50444-0.18775 1.34014-0.25195 1.85743-0.0642 0.51681-0.15796 1.34193-0.20704 1.83398-0.0495 0.4916-0.11207 1.1513-0.13867 1.4668-0.0261 0.31504-0.0785 1.05745-0.11523 1.65039-0.0371 0.59249-0.0908 1.91739-0.11914 2.9414-0.039 1.38628-0.04035 2.33034-0.00196 3.69141 0.0284 1.00612 0.07246 2.16955 0.09766 2.58594 0.0252 0.41593 0.0782 1.1694 0.11719 1.67382 0.0385 0.50444 0.11212 1.31849 0.16211 1.81055 0.0504 0.49159 0.14179 1.30807 0.20508 1.8125 0.0633 0.50444 0.18838 1.40119 0.27734 1.99414 0.089 0.59248 0.24124 1.52 0.33984 2.0625 0.0981 0.54204 0.26401 1.39986 0.36719 1.9043 0.10318 0.50443 0.25962 1.23578 0.34766 1.62695 0.0885 0.39071 0.29469 1.23747 0.45703 1.88086 0.16188 0.64293 0.38731 1.4988 0.50195 1.90235 0.11465 0.40355 0.33317 1.1479 0.48633 1.65234l0.2793 0.91601 0.60156 0.38868c0.33156 0.21324 0.93873 0.60027 1.34961 0.85937 0.41043 0.25956 1.25719 0.77769 1.88086 1.15235 0.62321 0.37467 1.51604 0.89854 1.98242 1.16406 0.46683 0.26552 1.29194 0.72674 1.83398 1.02344 0.5425 0.29716 1.79175 0.94787 2.77539 1.44726 0.98366 0.49938 2.2117 1.10805 2.72852 1.35156 0.51728 0.24396 1.42406 0.65968 2.01563 0.92383 0.59111 0.2646 1.48833 0.65603 1.99414 0.8711 0.50581 0.21461 1.43482 0.59784 2.06445 0.84961 0.62963 0.25175 1.5985 0.62832 2.1543 0.83789s1.56901 0.57701 2.25 0.8164c0.68099 0.23937 1.81527 0.6217 2.52148 0.84961 0.70621 0.22837 1.72749 0.54814 2.26953 0.71094 0.5425 0.16325 1.51332 0.4442 2.15625 0.62305 0.64339 0.17931 1.81902 0.4895 2.61328 0.68945 0.79472 0.19993 1.90931 0.47029 2.47657 0.59961 0.56772 0.12978 1.57472 0.34772 2.23828 0.48437 0.66311 0.13666 1.71469 0.34239 2.33789 0.45703 0.62276 0.11465 1.6901 0.29918 2.37109 0.41016s1.68257 0.26371 2.22461 0.33984c0.5425 0.0761 1.49167 0.19882 2.10938 0.27539 0.6177 0.0761 1.62676 0.19212 2.24218 0.25586 0.61587 0.0633 1.12444 0.10994 1.13086 0.10352 0.006-0.007-0.14678-0.14684-0.33984-0.31055-0.19261-0.16417-0.72179-0.6277-1.17578-1.03125-0.45354-0.40355-1.26759-1.1448-1.81055-1.64648-0.5425-0.50215-1.86442-1.79124-2.9375-2.86524-1.07307-1.07445-2.33337-2.36769-2.79883-2.87304-0.46546-0.50536-1.16753-1.28002-1.56054-1.72071-0.393-0.44023-1.04799-1.19058-1.45704-1.66796-0.40905-0.47692-1.08199-1.28234-1.49609-1.78907-0.41409-0.50627-1.04511-1.2921-1.40234-1.74609-0.35678-0.454-1.01474-1.30985-1.46094-1.90234-0.4462-0.59294-1.04807-1.407-1.33789-1.81055-0.29028-0.40355-0.76636-1.07626-1.05664-1.49219-0.29074-0.41639-0.85771-1.25014-1.26172-1.85547-0.40401-0.60532-1.0243-1.55449-1.37695-2.10937s-0.91421-1.46005-1.24805-2.01172c-0.33385-0.55167-0.88112-1.48113-1.2168-2.06445-0.33614-0.58331-0.84736-1.49378-1.13672-2.02344-0.2889-0.52966-0.81544-1.52018-1.16992-2.20117-0.35449-0.68099-0.93826-1.84799-1.29687-2.5918-0.35861-0.74428-0.85911-1.80645-1.11133-2.36133s-0.70561-1.58676-1.00781-2.29297c-0.30221-0.70622-0.76296-1.8208-1.02344-2.47656-0.26047-0.65577-0.6307-1.61599-0.82422-2.13281-0.19306-0.51728-0.54301-1.48615-0.77734-2.1543-0.2348-0.66861-0.53073-1.53507-0.65821-1.92578-0.12749-0.39116-0.37779-1.18333-0.55664-1.75977-0.17885-0.57689-0.44621-1.47365-0.5957-1.99414-0.14904-0.52048-0.3679-1.29779-0.48438-1.72656s-0.33453-1.27553-0.48632-1.88086c-0.15179-0.60532-0.34796-1.40878-0.43555-1.78711-0.0876-0.37832-0.2605-1.15666-0.38477-1.72851-0.12428-0.57231-0.33-1.5793-0.45703-2.23829-0.12703-0.65897-0.32216-1.73957-0.43359-2.40039-0.11144-0.66035-0.28537-1.76756-0.38672-2.46093-0.10088-0.69383-0.24718-1.77766-0.32422-2.40821-0.077-0.63055-0.19154-1.65182-0.2539-2.26953-0.06241-0.61817-0.15418-1.66063-0.20508-2.3164-0.0509-0.65576-0.12359-1.7487-0.16211-2.42969-0.0381-0.68099-0.09-1.83693-0.11524-2.56836-0.0252-0.73144-0.04647-2.23904-0.04687-3.35156 0-1.11205 0.02173-2.65988 0.04883-3.43946 0.0266-0.77913 0.06267-1.69109 0.08007-2.02539 0.0174-0.33431 0.02764-0.60742 0.02344-0.60742zm87.00781 5.9043l0.91993 0.80664c0.50627 0.44344 1.2793 1.1332 1.71679 1.53125 0.43702 0.39805 1.1565 1.06258 1.59766 1.47851 0.44161 0.41639 1.42361 1.3757 2.18164 2.13282 0.75803 0.75665 1.73796 1.75778 2.17773 2.22461 0.44024 0.46684 1.0989 1.17894 1.46485 1.58203 0.3664 0.40355 0.89502 0.99113 1.17383 1.30664 0.27836 0.31504 0.80489 0.92473 1.16992 1.35351 0.36548 0.42877 0.9943 1.18178 1.39648 1.67383 0.40263 0.4916 0.99022 1.22536 1.30664 1.62891 0.31688 0.40355 0.86668 1.11519 1.22071 1.58203 0.35402 0.46683 0.9416 1.26118 1.30664 1.76562 0.36457 0.50444 0.94305 1.31849 1.28515 1.81055 0.3421 0.49159 0.96195 1.41047 1.37696 2.04102 0.41501 0.63054 1.01262 1.55807 1.32812 2.0625 0.31551 0.50444 0.79642 1.29015 1.06836 1.74414 0.2724 0.454 0.80862 1.37091 1.19336 2.03906 0.38429 0.66815 0.93719 1.65003 1.22656 2.17969 0.28936 0.52965 0.825 1.53988 1.19141 2.24609 0.36686 0.70622 0.92944 1.82933 1.25 2.49609 0.321 0.66679 0.76599 1.61168 0.99023 2.09961 0.22471 0.48839 0.58733 1.29587 0.80469 1.79297 0.21691 0.4971 0.59024 1.37693 0.83008 1.95703 0.24029 0.58011 0.61997 1.52709 0.84375 2.10352 0.22379 0.57643 0.57523 1.50395 0.7793 2.0625 0.20452 0.55855 0.51427 1.42915 0.68945 1.93359 0.17472 0.50444 0.47064 1.39533 0.6582 1.98047 0.18756 0.58469 0.47646 1.51093 0.64063 2.05664 0.16418 0.54571 0.43509 1.47911 0.60156 2.07617 0.16646 0.59754 0.44385 1.64323 0.61719 2.32422 0.1738 0.68099 0.41823 1.68211 0.54297 2.22461 0.12519 0.54204 0.33092 1.47152 0.45703 2.06446 0.12611 0.59248 0.32331 1.57241 0.4375 2.17773 0.11464 0.60533 0.30124 1.6569 0.41406 2.33789 0.11326 0.68099 0.26854 1.66241 0.34375 2.17969 0.0756 0.51728 0.20986 1.52704 0.29883 2.24609 0.089 0.71859 0.21303 1.81199 0.27539 2.42969 0.0623 0.61771 0.15418 1.66064 0.20508 2.31641s0.12405 1.75065 0.16211 2.43164c0.0381 0.68099 0.09 1.84557 0.11523 2.58984 0.0256 0.74382 0.04638 2.24163 0.04688 3.32617 0 1.085-0.02223 2.61116-0.04883 3.39258-0.0271 0.78188-0.06308 1.70603-0.08008 2.05274-0.0174 0.34669-0.02764 0.6289-0.02344 0.6289 0.004 0 0.26446-0.34523 0.57813-0.76758 0.31366-0.42235 0.8371-1.15081 1.16406-1.61718 0.32697-0.46684 0.7823-1.12653 1.00976-1.4668 0.22745-0.34072 0.66127-1.01102 0.96485-1.49024s0.79786-1.28462 1.09961-1.78906 0.79844-1.36031 1.10156-1.90234c0.30267-0.54251 0.7762-1.41956 1.05273-1.94922 0.27652-0.52966 0.75169-1.47884 1.05665-2.10938 0.3045-0.63055 0.67137-1.40416 0.81445-1.71875 0.14353-0.31504 0.41516-0.93338 0.60547-1.375 0.18984-0.44207 0.51744-1.22686 0.72656-1.74414 0.20911-0.51728 0.54685-1.38488 0.75-1.92968 0.2027-0.54524 0.54528-1.51607 0.76172-2.15625 0.21645-0.64063 0.51502-1.55595 0.66406-2.03516 0.14859-0.47922 0.40465-1.34762 0.56836-1.92773 0.16371-0.5801 0.43153-1.59034 0.5957-2.2461 0.16371-0.65577 0.39213-1.61599 0.50586-2.13281 0.11373-0.51728 0.29884-1.41404 0.41211-1.99414s0.27823-1.49898 0.36719-2.04102c0.089-0.5425 0.21465-1.3585 0.2793-1.8125 0.0652-0.45399 0.17051-1.24685 0.23242-1.76367 0.0614-0.51728 0.15165-1.37464 0.20117-1.9043 0.05-0.52966 0.1221-1.40717 0.16016-1.94921 0.0385-0.5425 0.091-1.45032 0.11523-2.01758 0.0247-0.56773 0.05862-1.62989 0.07422-2.36133 0.0161-0.73143 0.00601-2.10323-0.02148-3.04883-0.02801-0.94604-0.0827-2.21498-0.1211-2.82031-0.038-0.60532-0.0996-1.45209-0.13672-1.88086-0.0371-0.42878-0.0997-1.08847-0.13867-1.4668-0.039-0.37833-0.13182-1.17314-0.20703-1.76562-0.0752-0.59294-0.19823-1.48106-0.27344-1.97266-0.0756-0.49206-0.1897-1.1931-0.2539-1.55859-0.0638-0.36595-0.19945-1.08865-0.30079-1.60547-0.10089-0.51728-0.28542-1.40021-0.41015-1.96289-0.12473-0.56313-0.32999-1.43858-0.45703-1.94531-0.12702-0.50627-0.34278-1.32643-0.47852-1.82032-0.13529-0.49435-0.38293-1.35137-0.55078-1.90625-0.16783-0.55488-0.30836-1.01092-0.3125-1.01367-0.004-0.003-0.32758-0.21308-0.71875-0.46484-0.39071-0.25176-1.12447-0.71426-1.62891-1.0293-0.50443-0.31505-1.29878-0.80068-1.76562-1.07812-0.46637-0.2779-1.30254-0.76366-1.85742-1.08008-0.55488-0.31596-1.4733-0.82558-2.04102-1.13281-0.56726-0.30679-1.90831-0.99713-2.98047-1.53321-1.0717-0.53608-2.29973-1.13542-2.72851-1.33398-0.42877-0.19811-1.09907-0.50497-1.49024-0.67969-0.39071-0.17518-1.14418-0.50347-1.67383-0.73047-0.52966-0.22699-1.48942-0.62566-2.13281-0.88476-0.64293-0.25955-1.6642-0.65731-2.26953-0.88477-0.60532-0.22791-1.56509-0.57798-2.13281-0.7793-0.56726-0.20086-1.59914-0.55092-2.29297-0.77929-0.69337-0.22792-1.70359-0.54917-2.24609-0.71289-0.54204-0.16371-1.3061-0.39019-1.69727-0.50391-0.39071-0.11373-1.09176-0.31047-1.55859-0.4375-0.46638-0.12657-1.46796-0.38632-2.22461-0.57617-0.75666-0.18939-1.89094-0.45987-2.52149-0.60156-0.63055-0.14171-1.44655-0.31783-1.8125-0.39258-0.36548-0.0747-1.19059-0.23797-1.83398-0.36133-0.64292-0.1229-1.72526-0.317-2.40625-0.43164-0.68099-0.11419-1.66241-0.27004-2.17969-0.34571-0.51682-0.07519-1.33133-0.18867-1.81055-0.25195-0.47922-0.0633-1.32597-0.16569-1.88086-0.22851-0.55488-0.0633-1.23623-0.13597-1.51367-0.16211-0.27744-0.0261-0.60469-0.06058-0.72851-0.07617l-0.22657-0.0293zm23.47266 41.8418c-0.008-0.008-0.02721 0.02235-0.04101 0.06835-0.01331 0.0463-0.10926 0.53886-0.2129 1.09375-0.10364 0.55488-0.2808 1.45164-0.39453 1.99414-0.11327 0.54204-0.319 1.48062-0.45703 2.08594-0.13849 0.60533-0.42486 1.78291-0.63672 2.61524-0.21186 0.83232-0.55018 2.09228-0.75195 2.80078-0.20224 0.70851-0.54366 1.85384-0.75781 2.54492-0.21416 0.69154-0.58576 1.83481-0.82422 2.54102-0.23892 0.70621-0.61962 1.79004-0.8457 2.4082-0.22608 0.61771-0.59147 1.58657-0.8125 2.1543-0.22058 0.56726-0.63377 1.59384-0.91993 2.28125-0.28569 0.68741-0.71661 1.6906-0.95507 2.22851-0.23891 0.53792-0.66376 1.47073-0.94532 2.07422-0.28157 0.60349-0.8817 1.83095-1.33203 2.72656-0.44987 0.89561-1.06718 2.09049-1.37305 2.65821-0.30588 0.56726-0.79623 1.45537-1.08789 1.97265-0.2912 0.51728-0.86243 1.49675-1.27148 2.17774-0.4086 0.681-1.07036 1.75421-1.4707 2.38476-0.40033 0.63054-1.08262 1.67303-1.51367 2.31641-0.43152 0.64293-1.09019 1.60315-1.46485 2.13281-0.37512 0.52966-0.97008 1.35478-1.32226 1.83398-0.35266 0.47922-0.95084 1.27357-1.33008 1.76563-0.37879 0.49159-0.97892 1.25566-1.33203 1.69727-0.35356 0.44115-0.99828 1.22652-1.43164 1.74609-0.43335 0.51912-1.14857 1.35528-1.5879 1.85742-0.43885 0.50215-1.0413 1.17993-1.33984 1.50781-0.29899 0.32789-0.97285 1.05059-1.49609 1.60547-0.52279 0.55488-1.65913 1.71232-2.52539 2.57031-0.86671 0.85801-2.00942 1.96037-2.53907 2.44922-0.52966 0.4893-1.46776 1.33297-2.08593 1.875-0.61771 0.54251-1.59959 1.38098-2.17969 1.86524-0.58011 0.4838-1.51822 1.24681-2.08594 1.69531-0.56726 0.44894-1.58854 1.23225-2.26953 1.74219-0.68099 0.50947-1.59938 1.18347-2.04102 1.49804-0.44114 0.31413-1.25565 0.88306-1.81054 1.26368-0.55488 0.38062-1.4536 0.98076-1.9961 1.33203-0.54204 0.35127-1.36715 0.87528-1.83398 1.16601-0.46638 0.29028-1.21984 0.7515-1.67383 1.02344-0.45399 0.27239-1.34015 0.78937-1.9707 1.14844-0.63055 0.35953-1.46625 0.82731-1.85742 1.04101-0.39071 0.2137-1.13933 0.61088-1.66211 0.88282-0.52324 0.27148-0.94115 0.50853-0.92969 0.52734 0.011 0.0183 0.16098 0.0465 0.33203 0.0625 0.17105 0.0161 0.59806 0.06046 0.95117 0.09766 0.35311 0.0371 1.03447 0.0987 1.51367 0.13672 0.47922 0.0385 1.18223 0.0885 1.56055 0.11328 0.37833 0.0247 1.27555 0.07031 1.99414 0.09961 0.83049 0.0339 2.19378 0.04434 3.73828 0.02734 1.33676-0.0147 2.78022-0.04852 3.20899-0.07422 0.42877-0.0256 1.09952-0.0687 1.49023-0.0957 0.39117-0.0271 1.15523-0.0906 1.69727-0.14063 0.5425-0.05 1.42866-0.14374 1.9707-0.20703 0.5425-0.0637 1.41956-0.17673 1.94922-0.25195 0.52966-0.0756 1.50313-0.22944 2.16211-0.3418 0.65898-0.11235 1.6168-0.2879 2.13086-0.39062 0.51407-0.10271 1.34599-0.27782 1.84765-0.39063 0.50215-0.11281 1.32726-0.31048 1.83399-0.4375 0.50719-0.12703 1.30464-0.33436 1.77148-0.46094 0.46683-0.12611 1.38525-0.39173 2.04102-0.58984 0.65576-0.19856 1.7381-0.54436 2.40625-0.76953 0.66815-0.22516 1.74184-0.6084 2.38476-0.84961 0.6434-0.24122 1.64451-0.63309 2.22461-0.87109 0.5801-0.23801 1.49898-0.62781 2.04102-0.86719 0.54204-0.23939 1.2849-0.57654 1.65039-0.74805 0.36594-0.17196 1.28437-0.62536 2.04102-1.00781 0.75666-0.38292 1.70582-0.87617 2.10937-1.09766 0.40355-0.22196 1.09342-0.60958 1.5332-0.86132 0.44023-0.25223 1.14129-0.66529 1.5586-0.91797 0.41777-0.25268 1.16269-0.71816 1.65429-1.03321 0.49206-0.31504 1.24506-0.81037 1.67383-1.10156 0.42877-0.2912 1.14088-0.78651 1.58203-1.10156 0.44161-0.31504 1.17296-0.85275 1.62696-1.19531 0.45399-0.3421 1.28104-0.98727 1.83594-1.43165 0.55488-0.44436 1.39969-1.14333 1.8789-1.55468 0.47922-0.41134 1.18118-1.02854 1.5586-1.3711 0.3774-0.34255 1.08951-1.00697 1.58203-1.47656 0.49297-0.46912 1.27777-1.24228 1.74414-1.71875 0.46684-0.47646 1.13828-1.18315 1.49414-1.56836l0.64648-0.70117 0.0293-0.65039c0.0161-0.35861 0.05313-1.30144 0.08203-2.0957 0.0326-0.90661 0.04239-2.49597 0.02539-4.26563-0.0147-1.55137-0.04852-3.23384-0.07422-3.73828s-0.06775-1.2776-0.09375-1.71875c-0.0265-0.44162-0.081-1.22538-0.11914-1.74219-0.038-0.51728-0.10913-1.37463-0.1582-1.90429-0.0491-0.52966-0.12971-1.33312-0.17969-1.78711-0.0496-0.45399-0.13281-1.1767-0.18555-1.60547-0.0523-0.42877-0.17634-1.34765-0.27539-2.04102-0.0995-0.69383-0.27345-1.81901-0.38672-2.5-0.11282-0.68099-0.30044-1.74362-0.41601-2.36133-0.11601-0.6177-0.3319-1.69139-0.48047-2.38476-0.14859-0.69383-0.38506-1.756-0.52539-2.36133-0.14033-0.60532-0.40861-1.6896-0.5957-2.4082-0.18757-0.71905-0.45596-1.71822-0.59766-2.22266-0.14216-0.50444-0.42472-1.46466-0.62695-2.13281-0.20178-0.66861-0.60968-1.94861-0.90821-2.84375-0.29854-0.89561-0.70837-2.08184-0.91015-2.63672-0.20131-0.55488-0.50508-1.36939-0.67383-1.81055-0.16876-0.44161-0.49279-1.26672-0.7207-1.83398-0.22746-0.56773-0.65792-1.5996-0.95508-2.29297-0.29716-0.69383-0.70815-1.63389-0.91406-2.08789-0.20636-0.45353-0.38239-0.8316-0.39063-0.83984zm-120.15234 30.02929c-0.0101 0-0.01953 0.01039-0.01953 0.02149 0 0.0115 0.13775 0.33503 0.30468 0.7207 0.16692 0.38566 0.47874 1.08394 0.69336 1.55078 0.21415 0.46637 0.72492 1.51795 1.13672 2.33789 0.41181 0.81948 0.96955 1.89271 1.23828 2.38477 0.26873 0.49159 0.74653 1.33836 1.0625 1.88086 0.31596 0.54204 0.84457 1.41955 1.17383 1.94922 0.32972 0.52965 0.97295 1.52018 1.42969 2.20117 0.45675 0.68099 1.10481 1.6191 1.4414 2.08593 0.33706 0.46638 0.87051 1.18908 1.18555 1.60547 0.31505 0.41593 0.92855 1.19969 1.36328 1.74219 0.43427 0.54204 1.1352 1.3888 1.55664 1.88086 0.42189 0.49159 1.13135 1.29505 1.57617 1.78711 0.44529 0.49159 1.42843 1.52174 2.18555 2.28711 0.75711 0.76582 1.76884 1.7575 2.24805 2.20508 0.47922 0.44803 1.16056 1.07201 1.51367 1.38476 0.3531 0.31275 0.92145 0.80647 1.26172 1.09766 0.34072 0.2912 1.00043 0.83743 1.4668 1.21484 0.46684 0.37741 1.19818 0.95693 1.62695 1.28711 0.42877 0.33017 1.06012 0.80419 1.40039 1.05274 0.34072 0.24854 0.93741 0.67557 1.32813 0.95117 0.39116 0.27561 1.18552 0.8154 1.76562 1.19922 0.5801 0.38337 1.4438 0.93951 1.91797 1.23437 0.47463 0.29487 1.27912 0.77809 1.78906 1.07617 0.50994 0.29761 1.40981 0.80607 2 1.12891s1.63358 0.867 2.31641 1.21094c0.68282 0.34393 1.68452 0.83061 2.22656 1.08008 0.5425 0.24947 1.38731 0.6266 1.87891 0.83984 0.49205 0.21324 1.40183 0.58968 2.01953 0.83594 0.61771 0.24672 1.55317 0.60725 2.08008 0.80078 0.5269 0.19397 1.32171 0.47654 1.76562 0.62695 0.44436 0.15041 1.23078 0.40499 1.74805 0.56641 0.51728 0.16142 1.26809 0.38684 1.66797 0.50195 0.39942 0.1151 1.15287 0.32393 1.67382 0.46289 0.52094 0.13895 1.42566 0.36542 2.01172 0.50391 0.58606 0.13804 1.1429 0.26369 1.23828 0.27929l0.17383 0.02735 1.16797-0.60547c0.64293-0.33293 1.32474-0.68876 1.51367-0.79102 0.18939-0.10227 0.64233-0.349 1.00782-0.55078 0.36594-0.20132 1.04729-0.58456 1.51367-0.84961 0.46683-0.26552 1.36554-0.79205 1.99609-1.16992 0.63054-0.37786 1.62107-0.98768 2.20117-1.35547 0.5801-0.36732 1.64274-1.06146 2.36133-1.54297 0.71906-0.48197 1.70163-1.1564 2.18359-1.49804 0.48197-0.34164 1.24776-0.89421 1.70313-1.22852 0.45583-0.3343 1.25168-0.93249 1.76758-1.33008 0.51544-0.39713 1.30702-1.01903 1.75781-1.38086 0.45124-0.36136 1.05588-0.85345 1.3457-1.09375 0.29029-0.23984 0.80623-0.67307 1.14649-0.96289 0.34073-0.28982 0.86726-0.74275 1.16992-1.00781s0.89071-0.79102 1.30664-1.16797c0.41639-0.3765 1.25209-1.15529 1.85742-1.72851 0.60532-0.57323 1.73005-1.67883 2.5-2.45703 0.7695-0.77822 1.85643-1.9103 2.41407-2.51563 0.55808-0.60532 1.35889-1.49148 1.78124-1.9707 0.42235-0.47921 1.07444-1.23268 1.44727-1.67383 0.37282-0.44162 0.92159-1.10326 1.21875-1.46875 0.29762-0.36595 0.87299-1.0867 1.2793-1.60352 0.40676-0.51727 1.07163-1.38374 1.47656-1.92578 0.40492-0.5425 1.04505-1.41956 1.42383-1.94922 0.37879-0.52966 0.68368-0.96819 0.67773-0.97461-0.007-0.007-0.15386 0.0399-0.32812 0.10547-0.1738 0.0656-0.8934 0.31623-1.59961 0.55469-0.70621 0.23892-1.77944 0.58944-2.38477 0.7793-0.60532 0.18985-1.75066 0.52828-2.54492 0.7539-0.79379 0.22562-2.05213 0.56441-2.79687 0.75196-0.74428 0.1871-1.75599 0.43166-2.24805 0.54492-0.49159 0.11327-1.33836 0.30033-1.88086 0.41406-0.54204 0.11372-1.47854 0.30046-2.08203 0.41602-0.60303 0.11556-1.64551 0.30263-2.31641 0.41406-0.67044 0.1119-1.71498 0.27523-2.32031 0.36328-0.60532 0.0881-1.51314 0.21211-2.01758 0.27539-0.50444 0.0633-1.3906 0.16524-1.9707 0.22852-0.58011 0.0628-1.52017 0.15613-2.08789 0.20703-0.56726 0.0505-1.6496 0.1336-2.40625 0.18359-0.75666 0.0505-1.82988 0.11207-2.38477 0.13867-0.55488 0.0266-1.97864 0.07051-3.16406 0.09571-1.43719 0.0303-2.84255 0.02884-4.21875-0.00196-1.13498-0.0257-2.67175-0.0767-3.41602-0.11523-0.74382-0.0385-1.77568-0.10152-2.29297-0.13867-0.51681-0.0376-1.40493-0.10926-1.97265-0.16016-0.56726-0.0514-1.59914-0.1563-2.29297-0.23242-0.69337-0.0761-1.70555-0.19857-2.24805-0.27149-0.54204-0.0729-1.4085-0.19592-1.92578-0.27343-0.51728-0.0779-1.31163-0.20318-1.76562-0.2793-0.454-0.0756-1.05069-0.17957-1.32813-0.23047-0.27744-0.0505-0.97721-0.1836-1.55273-0.29687-0.57597-0.11281-1.47319-0.29678-1.99414-0.40821-0.5214-0.11144-1.30838-0.28699-1.75-0.39062-0.44115-0.10318-1.29148-0.30995-1.88672-0.45899-0.59569-0.14904-1.42991-0.36595-1.85547-0.48242-0.42602-0.11603-1.23892-0.34605-1.80664-0.50976-0.56726-0.16417-1.28997-0.37785-1.60547-0.47461-0.31505-0.0972-1.02715-0.32253-1.58203-0.5-0.55488-0.17793-1.39059-0.45485-1.85742-0.61719-0.46638-0.16233-1.17894-0.41311-1.58203-0.55664-0.40309-0.144-1.26956-0.46699-1.92579-0.71875-0.65622-0.25176-1.68764-0.66206-2.29296-0.91016-0.60533-0.24809-1.41074-0.58329-1.78907-0.74609s-1.07937-0.47288-1.55859-0.6875c-0.47922-0.21507-1.25237-0.5694-1.71875-0.78906-0.46591-0.2192-1.52809-0.7394-2.36133-1.15625-0.83278-0.41638-1.86615-0.94442-2.29492-1.17188-0.42878-0.22791-1.17118-0.63097-1.65039-0.89648-0.47922-0.26552-1.13892-0.63676-1.4668-0.82618-0.32789-0.18893-0.94818-0.55155-1.37695-0.80468-0.42877-0.25314-1.12983-0.67531-1.5586-0.93946-0.42878-0.26368-1.09538-0.68308-1.48242-0.93164-0.38658-0.24808-0.7121-0.45117-0.72265-0.45117zm-27.38086 85.85742c-1.60555 0-3.01912 0.28233-4.24024 0.84766-1.1985 0.54272-2.12546 1.27793-2.78125 2.20508-0.63317 0.90453-0.94922 1.89893-0.94922 2.98437 0 1.13067 0.25919 2.07017 0.7793 2.81641 0.54272 0.74624 1.43596 1.38028 2.67969 1.90039 1.24373 0.49749 2.95021 0.9253 5.12109 1.28711 2.71361 0.45227 4.62438 1.08631 5.73242 1.90039 1.13067 0.81408 1.69727 1.93278 1.69727 3.35742 0 1.65078-0.72463 2.95259-2.17187 3.90235-1.42465 0.92714-3.2217 1.39062-5.39258 1.39062-2.30656 0-4.24046-0.48661-5.80078-1.45898-1.53771-0.97238-2.45408-2.40908-2.74805-4.3086l-0.50781 0.27149c0.3618 1.98997 1.34562 3.48353 2.95117 4.47851 1.62816 0.99499 3.66323 1.49219 6.10547 1.49219 1.58293 0 2.98393-0.23801 4.20508-0.71289 1.22111-0.49749 2.17121-1.18644 2.8496-2.06836 0.70102-0.88192 1.05274-1.87827 1.05274-2.98633 0-1.08544-0.26114-1.98926-0.78125-2.71289-0.49749-0.74624-1.32328-1.35715-2.47656-1.83203-1.15328-0.49749-2.6892-0.91471-4.61133-1.25391-2.08044-0.36181-3.70888-0.78098-4.88477-1.25586s-2.01227-1.03952-2.50976-1.69531c-0.4975-0.6784-0.74805-1.51673-0.74805-2.51172 0-1.04021 0.30546-1.97776 0.91602-2.81445 0.61055-0.85931 1.48261-1.52707 2.61328-2.00195 1.13067-0.4975 2.43053-0.7461 3.90039-0.7461 4.27392 0 6.85246 1.6853 7.73437 5.05469l0.43946-0.33984c-1.0176-3.45984-3.74162-5.18946-8.17383-5.18946zm145.3164 0c-1.98996 0-3.73212 0.476-5.22461 1.42579-1.49247 0.92714-2.65744 2.26072-3.49414 4.00195-0.81408 1.74122-1.2207 3.77629-1.2207 6.10547 0 2.32917 0.39604 4.36424 1.1875 6.10547 0.81409 1.74122 1.95592 3.08734 3.42578 4.03711 1.49248 0.92714 3.22207 1.39062 5.18946 1.39062 2.28392 0 4.1504-0.50974 5.59765-1.52734s2.39734-2.41863 2.84961-4.20508v5.39258h0.54102v-10.54883h-8.7168v0.47461h8.17578v1.79883c0 1.17589-0.26114 2.38517-0.78125 3.6289-0.49749 1.24374-1.38014 2.30558-2.64648 3.1875s-2.93911 1.32422-5.01953 1.32422c-1.85431 0-3.48274-0.45289-4.88477-1.35742-1.37941-0.90453-2.4538-2.18321-3.22266-3.83399-0.76885-1.67338-1.15234-3.62846-1.15234-5.86718s0.38349-4.18321 1.15234-5.83399c0.79147-1.67338 1.88899-2.96264 3.29102-3.86719 1.42464-0.90453 3.07622-1.35742 4.95312-1.35742 2.1935 0 3.96742 0.47602 5.32422 1.42578 1.35681 0.92715 2.31748 2.34072 2.88281 4.24024l0.47657-0.23828c-1.10806-3.93472-4.00263-5.90235-8.6836-5.90235zm89.92383 0c-1.60555 0-3.01911 0.28233-4.24023 0.84766-1.19851 0.54272-2.12547 1.27793-2.78125 2.20508-0.63318 0.90453-0.94922 1.89893-0.94922 2.98437 0 1.13067 0.25919 2.07017 0.7793 2.81641 0.54272 0.74624 1.43595 1.38028 2.67968 1.90039 1.24374 0.49749 2.95217 0.9253 5.12305 1.28711 2.7136 0.45227 4.62437 1.08631 5.73242 1.90039 1.13067 0.81408 1.69531 1.93278 1.69531 3.35742 0 1.65078-0.72462 2.95259-2.17187 3.90235-1.42464 0.92714-3.22171 1.39062-5.39258 1.39062-2.30657 0-4.24046-0.48661-5.80078-1.45898-1.5377-0.97238-2.45212-2.40908-2.74609-4.3086l-0.50977 0.27149c0.36181 1.98997 1.34562 3.48353 2.95117 4.47851 1.62816 0.99499 3.66323 1.49219 6.10547 1.49219 1.58293 0 2.98591-0.23801 4.20703-0.71289 1.22112-0.49749 2.16926-1.18644 2.84766-2.06836 0.70101-0.88192 1.05273-1.87827 1.05273-2.98633 0-1.08544-0.26114-1.98926-0.78125-2.71289-0.49749-0.74624-1.32133-1.35715-2.47461-1.83203-1.15328-0.49749-2.69114-0.91471-4.61328-1.25391-2.08042-0.36181-3.70887-0.78098-4.88476-1.25586-1.1759-0.47488-2.01228-1.03952-2.50977-1.69531-0.49749-0.6784-0.74609-1.51673-0.74609-2.51172 0-1.04021 0.30545-1.97776 0.91601-2.81445 0.61056-0.85931 1.48066-1.52707 2.61133-2.00195 1.13066-0.4975 2.43052-0.7461 3.90039-0.7461 4.27392 0 6.85246 1.6853 7.73438 5.05469l0.43945-0.33984c-1.0176-3.45984-3.74161-5.18946-8.17383-5.18946zm22.13672 0c-2.08043 0-3.89003 0.47601-5.42773 1.42579-1.53771 0.92714-2.72386 2.26072-3.56055 4.00195-0.81409 1.71861-1.2207 3.75368-1.2207 6.10547 0 2.35178 0.40661 4.39744 1.2207 6.13867 0.83669 1.71861 2.02284 3.05414 3.56055 4.00391 1.5377 0.92714 3.3473 1.39062 5.42773 1.39062 2.08042 0 3.89002-0.46348 5.42774-1.39062 1.53768-0.94978 2.71326-2.2853 3.52734-4.00391 0.8367-1.74123 1.25586-3.78689 1.25586-6.13867 0-2.35179-0.41916-4.38686-1.25586-6.10547-0.81407-1.74123-1.98966-3.07483-3.52734-4.00195-1.53774-0.94978-3.34732-1.42579-5.42774-1.42579zm89.4375 0c-2.08042 0-3.89002 0.47601-5.42773 1.42579-1.53771 0.92714-2.72386 2.26072-3.56055 4.00195-0.81408 1.71861-1.2207 3.75368-1.2207 6.10547 0 2.35178 0.40662 4.39744 1.2207 6.13867 0.83669 1.71861 2.02284 3.05414 3.56055 4.00391 1.53771 0.92714 3.34731 1.39062 5.42773 1.39062 2.08043 0 3.89003-0.46348 5.42774-1.39062 1.53768-0.94978 2.71326-2.2853 3.52734-4.00391 0.83669-1.74123 1.25586-3.78689 1.25586-6.13867 0-2.35179-0.41917-4.38686-1.25586-6.10547-0.81407-1.74123-1.98965-3.07483-3.52734-4.00195-1.53771-0.94978-3.34731-1.42579-5.42774-1.42579zm45.45117 0c-1.60555 0-3.01911 0.28233-4.24023 0.84766-1.19851 0.54272-2.12547 1.27793-2.78125 2.20508-0.63318 0.90453-0.94922 1.89893-0.94922 2.98437 0 1.13067 0.25919 2.07017 0.7793 2.81641 0.54272 0.74624 1.43595 1.38028 2.67968 1.90039 1.24374 0.49749 2.95217 0.9253 5.12305 1.28711 2.7136 0.45227 4.62437 1.08631 5.73242 1.90039 1.13067 0.81408 1.6953 1.93278 1.69532 3.35742-0.00001 1.65078-0.72267 2.95259-2.16993 3.90235-1.42464 0.92714-3.22365 1.39062-5.39453 1.39062-2.30656 0-4.23851-0.48661-5.79883-1.45898-1.5377-0.97238-2.45407-2.40908-2.74804-4.3086l-0.50977 0.27149c0.36181 1.98997 1.34563 3.48353 2.95117 4.47851 1.62816 0.99499 3.66323 1.49219 6.10547 1.49219 1.58294 0 2.98591-0.23801 4.20703-0.71289 1.22112-0.49749 2.17121-1.18644 2.84961-2.06836 0.70102-0.88192 1.05078-1.87827 1.05078-2.98633 0-1.08544-0.25919-1.98926-0.77929-2.71289-0.4975-0.74624-1.32329-1.35715-2.47657-1.83203-1.15328-0.49749-2.69114-0.91471-4.61328-1.25391-2.08042-0.36181-3.70887-0.78098-4.88476-1.25586-1.1759-0.47488-2.01227-1.03952-2.50977-1.69531-0.49749-0.6784-0.74609-1.51673-0.74609-2.51172 0-1.04021 0.30545-1.97776 0.91601-2.81445 0.61057-0.85931 1.48067-1.52707 2.61133-2.00195 1.13066-0.4975 2.43053-0.7461 3.90039-0.7461 4.27392 0 6.85245 1.6853 7.73438 5.05469l0.4414-0.33984c-1.0176-3.45984-3.74356-5.18946-8.17578-5.18946zm-378.88086 0.33985v22.38672h0.54297v-19.67383l-0.0332-1.9336 9.125 21.60743h0.67773l9.125-21.60743-0.03515 1.9336v19.67383h0.54297v-22.38672h-0.71289l-8.85157 20.79297-0.4082 0.94921-0.40625-0.98437-8.85352-20.75781h-0.71289zm32.80274 0l-9.22657 22.38672h0.57618l3.29101-7.9375h11.32813l3.29101 7.9375h0.57617l-9.22656-22.38672h-0.60937zm13.49414 0v22.38672h0.54101v-10.17578h7.56446c0.31658-0.00001 0.544-0.01061 0.67968-0.03321l6.78321 10.20899h0.61133l-6.75-10.24414c1.80906-0.22614 3.22263-0.85823 4.24023-1.89844 1.0176-1.06283 1.52539-2.44267 1.52539-4.13867 0-1.89952-0.63404-3.39308-1.90039-4.47852s-2.99596-1.62695-5.18945-1.62695h-8.10547zm16.84961 0v0.47461h8.58203v21.91211h0.54297v-21.91211h8.58203v-0.47461h-17.70703zm30.04101 0v22.38672h6.88672c3.61813 0 6.35469-0.97127 8.20899-2.91602 1.8769-1.96736 2.81445-4.84076 2.81445-8.61719 0-3.5729-0.93755-6.27379-2.81445-8.10547-1.8543-1.83168-4.59086-2.74804-8.20899-2.74804h-6.88672zm23.08203 0v22.38672h0.54297v-22.38672h-0.54297zm29.99805 0v22.38672h0.54297v-22.38672h-0.54297zm4.19727 0v0.47461h8.58008v21.91211h0.54296v-21.91211h8.58204v-0.47461h-17.70508zm24.25781 0l-9.22656 22.38672h0.57812l3.28906-7.9375h11.33008l3.28907 7.9375h0.57812l-9.22656-22.38672h-0.61133zm13.49414 0v22.38672h14.6543v-0.47461h-14.11133v-21.91211h-0.54297zm71.16602 0v22.38672h14.65234v-0.47461h-14.10938v-21.91211h-0.54296zm16.51562 0v14.41601c0 2.64576 0.73521 4.69144 2.20508 6.13867 1.49249 1.44726 3.57381 2.17188 6.24219 2.17188 2.66836 0 4.73715-0.72462 6.20703-2.17188 1.49247-1.44724 2.23828-3.49291 2.23828-6.13867v-14.41601h-0.54297v14.41601c0 2.48747-0.70149 4.42137-2.10352 5.80078-1.37941 1.3568-3.31136 2.03516-5.79882 2.03516-2.48747 0-4.43196-0.67836-5.83399-2.03516-1.37941-1.37941-2.07031-3.31331-2.07031-5.80078v-14.41601h-0.54297zm20.23633 0v0.47461h8.58203v21.91211h0.54297v-21.91211h8.58008v-0.47461h-17.70508zm21.36328 0v22.38672h0.54102v-22.38672h-0.54102zm31.32227 0v22.38672h0.54296v-19.91016l-0.03515-1.93359 0.88281 1.32226 14.6875 20.52149h0.74609v-22.38672h-0.54296v19.91015l0.0332 1.9336-0.88086-1.32227-14.6875-20.52148h-0.74609zm-104.82813 0.13476c1.96736 0 3.67579 0.45289 5.12305 1.35742 1.46986 0.90454 2.58857 2.19381 3.35742 3.86719 0.79147 1.65078 1.1875 3.59527 1.1875 5.83399s-0.39603 4.1938-1.1875 5.86718c-0.76885 1.65078-1.88756 2.92946-3.35742 3.83399-1.44726 0.90453-3.15569 1.35742-5.12305 1.35742s-3.68638-0.45289-5.15625-1.35742c-1.44725-0.90453-2.56596-2.18321-3.35742-3.83399-0.76885-1.67338-1.15235-3.62846-1.15235-5.86718s0.3835-4.18321 1.15235-5.83399c0.79146-1.67338 1.91017-2.96265 3.35742-3.86719 1.46987-0.90453 3.18889-1.35742 5.15625-1.35742zm89.4375 0c1.96736 0 3.67579 0.45289 5.12305 1.35742 1.46987 0.90454 2.58857 2.19381 3.35742 3.86719 0.79146 1.65078 1.1875 3.59527 1.1875 5.83399s-0.39604 4.1938-1.1875 5.86718c-0.76885 1.65078-1.88755 2.92946-3.35742 3.83399-1.44726 0.90453-3.15569 1.35742-5.12305 1.35742s-3.68638-0.45289-5.15625-1.35742c-1.44725-0.90453-2.56595-2.18321-3.35742-3.83399-0.76885-1.67338-1.15235-3.62846-1.15235-5.86718 0.00001-2.23872 0.3835-4.18321 1.15235-5.83399 0.79147-1.67338 1.91017-2.96265 3.35742-3.86719 1.46987-0.90453 3.18889-1.35742 5.15625-1.35742zm-286.5918 0.33985h7.56446c2.05781 0 3.66312 0.4972 4.8164 1.49218 1.15328 0.99499 1.73047 2.37484 1.73047 4.13868s-0.57719 3.14368-1.73047 4.13867c-1.15328 0.99498-2.75859 1.49219-4.8164 1.49219h-7.56446v-11.26172zm46.89258 0h6.34375c3.43723 0 6.03694 0.88264 7.80078 2.64648 1.78646 1.74123 2.67969 4.31781 2.67969 7.73242 0 3.64075-0.89323 6.40044-2.67969 8.27735-1.76384 1.85429-4.36356 2.78125-7.80078 2.78125h-6.34375v-21.4375zm-60.62304 0.13476l0.57617 1.56055 4.88476 11.80469h-10.92187l4.88476-11.83789 0.57618-1.52735zm141.92187 0l0.57617 1.56055 4.88477 11.80469h-10.92383l4.88476-11.83789 0.57813-1.52735z" />
</svg>